<svg xmlns="http://www.w3.org/2000/svg" viewBox="0 0 128 128" width="128" height="128">
  <circle cx="64" cy="64" r="60" fill="#D8D8E0" stroke="#3A3A4A" stroke-width="3"/>

  <!-- Helm -->
  <path d="M48 48 Q48 28 64 26 Q80 28 80 48 L80 60 L48 60 Z" fill="#7A7A88" stroke="#3A3A4A" stroke-width="2"/>
  <!-- Helm visor slit -->
  <rect x="52" y="46" width="24" height="4" fill="#1A1A22"/>
  <!-- Helm crest -->
  <path d="M62 26 Q64 12 66 26" fill="#3A3A4A" stroke="#1A1A22" stroke-width="2"/>

  <!-- Heavy chestplate -->
  <path d="M40 60 L88 60 L84 102 Q64 110 44 102 Z" fill="#9090A0" stroke="#3A3A4A" stroke-width="2.5"/>
  <!-- Chest cross detail -->
  <line x1="64" y1="64" x2="64" y2="100" stroke="#3A3A4A" stroke-width="2"/>
  <line x1="50" y1="78" x2="78" y2="78" stroke="#3A3A4A" stroke-width="2"/>

  <!-- Shoulder pauldrons -->
  <ellipse cx="40" cy="64" rx="8" ry="10" fill="#7A7A88" stroke="#3A3A4A" stroke-width="2"/>
  <ellipse cx="88" cy="64" rx="8" ry="10" fill="#7A7A88" stroke="#3A3A4A" stroke-width="2"/>

  <!-- Greatsword (right side) -->
  <line x1="100" y1="108" x2="108" y2="20" stroke="#C8C8D0" stroke-width="5" stroke-linecap="round"/>
  <line x1="98" y1="100" x2="112" y2="92" stroke="#3A3A4A" stroke-width="3" stroke-linecap="round"/>
  <circle cx="104" cy="110" r="4" fill="#8B6914" stroke="#3A2820" stroke-width="1.5"/>
</svg>
