<svg xmlns="http://www.w3.org/2000/svg" viewBox="0 0 128 128" width="128" height="128">
  <circle cx="64" cy="64" r="60" fill="#F0E8D0" stroke="#6B4C0A" stroke-width="3"/>

  <!-- Planks/boards -->
  <rect x="22" y="75" width="84" height="10" rx="2" fill="#C4A04A" stroke="#8B6914" stroke-width="1.5"/>
  <rect x="26" y="86" width="76" height="10" rx="2" fill="#DAB860" stroke="#8B6914" stroke-width="1.5"/>
  <rect x="30" y="97" width="68" height="8" rx="2" fill="#C4A04A" stroke="#8B6914" stroke-width="1.5"/>
  <!-- Circular saw blade -->
  <circle cx="64" cy="48" r="24" fill="#808080" stroke="#555" stroke-width="2"/>
  <circle cx="64" cy="48" r="18" fill="#909090" stroke="#666" stroke-width="1"/>
  <circle cx="64" cy="48" r="5" fill="#555" stroke="#333" stroke-width="1.5"/>
  <!-- Saw teeth (simplified) -->
  <g stroke="#555" stroke-width="2" stroke-linecap="round">
    <line x1="64" y1="24" x2="64" y2="28"/>
    <line x1="64" y1="68" x2="64" y2="72"/>
    <line x1="40" y1="48" x2="44" y2="48"/>
    <line x1="84" y1="48" x2="88" y2="48"/>
    <line x1="47" y1="31" x2="49" y2="34"/>
    <line x1="81" y1="65" x2="79" y2="62"/>
    <line x1="47" y1="65" x2="49" y2="62"/>
    <line x1="81" y1="31" x2="79" y2="34"/>
  </g>

</svg>