<svg xmlns="http://www.w3.org/2000/svg" viewBox="0 0 128 128" width="128" height="128">
  <circle cx="64" cy="64" r="60" fill="#FFF8DC" stroke="#B8860B" stroke-width="3"/>

  <!-- Shadow under stack -->
  <ellipse cx="64" cy="101" rx="44" ry="5" fill="#B8860B" opacity="0.2"/>

  <!-- Bottom bar -->
  <rect x="16" y="83" width="96" height="16" rx="3" fill="#E8C000" stroke="#B8860B" stroke-width="1.5"/>
  <rect x="20" y="86" width="30" height="9" rx="2" fill="#FFE84D" opacity="0.55"/>
  <line x1="58" y1="85" x2="58" y2="97" stroke="#B8860B" stroke-width="1" opacity="0.4"/>
  <line x1="88" y1="85" x2="88" y2="97" stroke="#B8860B" stroke-width="1" opacity="0.4"/>

  <!-- Middle bar -->
  <rect x="20" y="65" width="88" height="18" rx="3" fill="#FFD700" stroke="#B8860B" stroke-width="1.5"/>
  <rect x="24" y="68" width="26" height="10" rx="2" fill="#FFE84D" opacity="0.55"/>
  <line x1="56" y1="68" x2="56" y2="80" stroke="#B8860B" stroke-width="1" opacity="0.4"/>
  <line x1="82" y1="68" x2="82" y2="80" stroke="#B8860B" stroke-width="1" opacity="0.4"/>

  <!-- Top bar -->
  <rect x="26" y="47" width="76" height="18" rx="3" fill="#FFD700" stroke="#B8860B" stroke-width="1.5"/>
  <rect x="30" y="50" width="22" height="10" rx="2" fill="#FFE84D" opacity="0.6"/>
  <line x1="58" y1="50" x2="58" y2="62" stroke="#B8860B" stroke-width="1" opacity="0.4"/>
  <line x1="80" y1="50" x2="80" y2="62" stroke="#B8860B" stroke-width="1" opacity="0.4"/>
</svg>
