<svg xmlns="http://www.w3.org/2000/svg" viewBox="0 0 128 128" width="128" height="128">
  <circle cx="64" cy="64" r="60" fill="#DCDCD8" stroke="#5A5A5A" stroke-width="3"/>

  <!-- Ground shadow -->
  <ellipse cx="64" cy="102" rx="46" ry="6" fill="#3A3A3A" opacity="0.2"/>

  <!-- Back center boulder (largest) -->
  <path d="M36,88 Q28,70 36,54 Q46,40 64,38 Q82,38 92,52 Q100,66 96,84 Q86,96 64,98 Q44,98 36,88 Z"
        fill="#8C8C8C" stroke="#5A5A5A" stroke-width="2"/>
  <!-- Highlight on back boulder -->
  <path d="M42,54 Q54,42 70,44" fill="none" stroke="#B4B4B4" stroke-width="2.5" stroke-linecap="round"/>
  <!-- Shadow seam -->
  <path d="M52,80 Q64,72 76,78" fill="none" stroke="#6A6A6A" stroke-width="1.5" stroke-linecap="round" opacity="0.6"/>

  <!-- Left foreground boulder -->
  <path d="M12,98 Q8,80 18,68 Q28,58 44,60 Q58,62 60,78 Q60,94 46,102 Q30,106 18,102 Z"
        fill="#7A7A7A" stroke="#5A5A5A" stroke-width="1.5"/>
  <!-- Highlight -->
  <path d="M16,72 Q26,60 42,62" fill="none" stroke="#ABABAB" stroke-width="2" stroke-linecap="round"/>

  <!-- Right foreground boulder (small) -->
  <path d="M74,98 Q72,82 82,72 Q92,64 106,66 Q118,70 118,84 Q116,96 104,102 Q88,106 76,102 Z"
        fill="#7A7A7A" stroke="#5A5A5A" stroke-width="1.5"/>
  <!-- Highlight -->
  <path d="M78,76 Q88,66 104,68" fill="none" stroke="#ABABAB" stroke-width="2" stroke-linecap="round"/>
</svg>
