<svg xmlns="http://www.w3.org/2000/svg" viewBox="0 0 128 128" width="128" height="128">
  <circle cx="64" cy="64" r="60" fill="#FDE8D0" stroke="#A0522D" stroke-width="3"/>

  <!-- Outer wall ellipse -->
  <ellipse cx="64" cy="68" rx="48" ry="28" fill="#E8C9A0" stroke="#A0522D" stroke-width="2"/>
  <!-- Inner arena -->
  <ellipse cx="64" cy="68" rx="30" ry="16" fill="#F5DEB3" stroke="#8B4513" stroke-width="1.5"/>
  <!-- Arena sand floor -->
  <ellipse cx="64" cy="72" rx="26" ry="12" fill="#DEB887" stroke="#A0522D" stroke-width="1"/>
  <!-- Upper arches row -->
  <rect x="22" y="42" width="8" height="12" rx="4" fill="#D2A06A" stroke="#8B4513" stroke-width="1"/>
  <rect x="34" y="40" width="8" height="14" rx="4" fill="#D2A06A" stroke="#8B4513" stroke-width="1"/>
  <rect x="46" y="38" width="8" height="14" rx="4" fill="#D2A06A" stroke="#8B4513" stroke-width="1"/>
  <rect x="58" y="37" width="12" height="15" rx="6" fill="#D2A06A" stroke="#8B4513" stroke-width="1"/>
  <rect x="74" y="38" width="8" height="14" rx="4" fill="#D2A06A" stroke="#8B4513" stroke-width="1"/>
  <rect x="86" y="40" width="8" height="14" rx="4" fill="#D2A06A" stroke="#8B4513" stroke-width="1"/>
  <rect x="98" y="42" width="8" height="12" rx="4" fill="#D2A06A" stroke="#8B4513" stroke-width="1"/>
  <!-- Wall segments between arches -->
  <rect x="18" y="54" width="92" height="4" fill="#C4A04A" stroke="#8B4513" stroke-width="1"/>
  <!-- Lower arches -->
  <rect x="26" y="58" width="7" height="10" rx="3" fill="#B8956A" stroke="#8B4513" stroke-width="1"/>
  <rect x="40" y="58" width="7" height="12" rx="3" fill="#B8956A" stroke="#8B4513" stroke-width="1"/>
  <rect x="54" y="58" width="7" height="12" rx="3" fill="#B8956A" stroke="#8B4513" stroke-width="1"/>
  <rect x="67" y="58" width="7" height="12" rx="3" fill="#B8956A" stroke="#8B4513" stroke-width="1"/>
  <rect x="81" y="58" width="7" height="12" rx="3" fill="#B8956A" stroke="#8B4513" stroke-width="1"/>
  <rect x="95" y="58" width="7" height="10" rx="3" fill="#B8956A" stroke="#8B4513" stroke-width="1"/>
  <!-- Crossed swords in arena -->
  <line x1="56" y1="66" x2="72" y2="78" stroke="#8B4513" stroke-width="2" stroke-linecap="round"/>
  <line x1="72" y1="66" x2="56" y2="78" stroke="#8B4513" stroke-width="2" stroke-linecap="round"/>
</svg>
