<svg xmlns="http://www.w3.org/2000/svg" viewBox="0 0 128 128" width="128" height="128">
  <circle cx="64" cy="64" r="60" fill="#E8F5E9" stroke="#2E7D32" stroke-width="3"/>

  <!-- Base -->
  <rect x="18" y="92" width="92" height="8" rx="2" fill="#6D4C41" stroke="#3E2723" stroke-width="1.5"/>
  <!-- Main fort body -->
  <rect x="26" y="48" width="76" height="46" rx="1" fill="#A5D6A7" stroke="#2E7D32" stroke-width="1.5"/>
  <!-- Battlements -->
  <rect x="26" y="42" width="12" height="8" fill="#81C784" stroke="#2E7D32" stroke-width="1.5"/>
  <rect x="46" y="42" width="12" height="8" fill="#81C784" stroke="#2E7D32" stroke-width="1.5"/>
  <rect x="70" y="42" width="12" height="8" fill="#81C784" stroke="#2E7D32" stroke-width="1.5"/>
  <rect x="90" y="42" width="12" height="8" fill="#81C784" stroke="#2E7D32" stroke-width="1.5"/>
  <!-- Left tower -->
  <rect x="18" y="32" width="16" height="62" rx="1" fill="#81C784" stroke="#2E7D32" stroke-width="1.5"/>
  <rect x="16" y="26" width="6" height="8" fill="#66BB6A" stroke="#2E7D32" stroke-width="1"/>
  <rect x="28" y="26" width="6" height="8" fill="#66BB6A" stroke="#2E7D32" stroke-width="1"/>
  <!-- Right tower -->
  <rect x="94" y="32" width="16" height="62" rx="1" fill="#81C784" stroke="#2E7D32" stroke-width="1.5"/>
  <rect x="92" y="26" width="6" height="8" fill="#66BB6A" stroke="#2E7D32" stroke-width="1"/>
  <rect x="104" y="26" width="6" height="8" fill="#66BB6A" stroke="#2E7D32" stroke-width="1"/>
  <!-- Gate -->
  <rect x="50" y="64" width="28" height="30" rx="14" fill="#3E2723" stroke="#1B0000" stroke-width="1.5"/>
  <!-- Flag -->
  <line x1="64" y1="18" x2="64" y2="42" stroke="#5D4037" stroke-width="2"/>
  <polygon points="64,18 82,24 64,30" fill="#F44336" stroke="#C62828" stroke-width="1"/>
  <!-- Tower windows -->
  <rect x="22" y="42" width="6" height="8" rx="3" fill="#2E7D32" stroke="#1B5E20" stroke-width="1"/>
  <rect x="98" y="42" width="6" height="8" rx="3" fill="#2E7D32" stroke="#1B5E20" stroke-width="1"/>
</svg>
