<svg xmlns="http://www.w3.org/2000/svg" viewBox="0 0 128 128" width="128" height="128">
  <circle cx="64" cy="64" r="60" fill="#EDE7F6" stroke="#4527A0" stroke-width="3"/>

  <!-- Base -->
  <rect x="20" y="92" width="88" height="8" rx="2" fill="#7E57C2" stroke="#4527A0" stroke-width="1.5"/>
  <!-- Main building -->
  <rect x="28" y="44" width="72" height="50" rx="2" fill="#D1C4E9" stroke="#4527A0" stroke-width="1.5"/>
  <!-- Columns -->
  <rect x="32" y="52" width="6" height="42" rx="1" fill="#EDE7F6" stroke="#4527A0" stroke-width="1"/>
  <rect x="48" y="52" width="6" height="42" rx="1" fill="#EDE7F6" stroke="#4527A0" stroke-width="1"/>
  <rect x="74" y="52" width="6" height="42" rx="1" fill="#EDE7F6" stroke="#4527A0" stroke-width="1"/>
  <rect x="90" y="52" width="6" height="42" rx="1" fill="#EDE7F6" stroke="#4527A0" stroke-width="1"/>
  <!-- Entablature -->
  <rect x="24" y="48" width="80" height="5" rx="1" fill="#B39DDB" stroke="#4527A0" stroke-width="1.5"/>
  <!-- Pediment -->
  <polygon points="20,48 64,24 108,48" fill="#CE93D8" stroke="#4527A0" stroke-width="2" stroke-linejoin="round"/>
  <!-- Compass/planning symbol -->
  <circle cx="64" cy="36" r="8" fill="none" stroke="#311B92" stroke-width="2"/>
  <line x1="64" y1="28" x2="64" y2="44" stroke="#311B92" stroke-width="1.5"/>
  <line x1="56" y1="36" x2="72" y2="36" stroke="#311B92" stroke-width="1.5"/>
  <line x1="58" y1="30" x2="70" y2="42" stroke="#311B92" stroke-width="1"/>
  <line x1="70" y1="30" x2="58" y2="42" stroke="#311B92" stroke-width="1"/>
  <!-- Door -->
  <rect x="54" y="68" width="20" height="26" rx="2" fill="#4527A0" stroke="#311B92" stroke-width="1.5"/>
  <circle cx="70" cy="81" r="2" fill="#FFD700"/>
  <!-- Map/scroll details -->
  <rect x="34" y="60" width="10" height="8" rx="1" fill="#FFF9C4" stroke="#F9A825" stroke-width="1"/>
  <line x1="36" y1="62" x2="42" y2="62" stroke="#F9A825" stroke-width="0.5"/>
  <line x1="36" y1="64" x2="42" y2="64" stroke="#F9A825" stroke-width="0.5"/>
  <line x1="36" y1="66" x2="40" y2="66" stroke="#F9A825" stroke-width="0.5"/>
  <rect x="84" y="60" width="10" height="8" rx="1" fill="#FFF9C4" stroke="#F9A825" stroke-width="1"/>
  <line x1="86" y1="62" x2="92" y2="62" stroke="#F9A825" stroke-width="0.5"/>
  <line x1="86" y1="64" x2="92" y2="64" stroke="#F9A825" stroke-width="0.5"/>
  <line x1="86" y1="66" x2="90" y2="66" stroke="#F9A825" stroke-width="0.5"/>
</svg>
