<svg xmlns="http://www.w3.org/2000/svg" viewBox="0 0 128 128" width="128" height="128">
  <circle cx="64" cy="64" r="60" fill="#FFF3E0" stroke="#E65100" stroke-width="3"/>

  <!-- Base -->
  <rect x="20" y="92" width="88" height="8" rx="2" fill="#A1887F" stroke="#5D4037" stroke-width="1.5"/>
  <!-- Main building -->
  <rect x="28" y="46" width="72" height="48" rx="2" fill="#FFCC80" stroke="#E65100" stroke-width="1.5"/>
  <!-- Roof -->
  <polygon points="24,46 64,22 104,46" fill="#FF9800" stroke="#E65100" stroke-width="2" stroke-linejoin="round"/>
  <!-- Door -->
  <rect x="52" y="68" width="24" height="26" rx="2" fill="#5D4037" stroke="#3E2723" stroke-width="1.5"/>
  <circle cx="72" cy="81" r="2" fill="#FFD700"/>
  <!-- Windows -->
  <rect x="34" y="54" width="12" height="12" rx="1" fill="#FFF8E1" stroke="#E65100" stroke-width="1"/>
  <line x1="40" y1="54" x2="40" y2="66" stroke="#E65100" stroke-width="0.8"/>
  <line x1="34" y1="60" x2="46" y2="60" stroke="#E65100" stroke-width="0.8"/>
  <rect x="82" y="54" width="12" height="12" rx="1" fill="#FFF8E1" stroke="#E65100" stroke-width="1"/>
  <line x1="88" y1="54" x2="88" y2="66" stroke="#E65100" stroke-width="0.8"/>
  <line x1="82" y1="60" x2="94" y2="60" stroke="#E65100" stroke-width="0.8"/>
  <!-- Gear symbol on roof -->
  <circle cx="64" cy="34" r="7" fill="none" stroke="#5D4037" stroke-width="2.5"/>
  <circle cx="64" cy="34" r="3" fill="#5D4037"/>
  <line x1="64" y1="25" x2="64" y2="27" stroke="#5D4037" stroke-width="2.5" stroke-linecap="round"/>
  <line x1="64" y1="41" x2="64" y2="43" stroke="#5D4037" stroke-width="2.5" stroke-linecap="round"/>
  <line x1="55" y1="34" x2="57" y2="34" stroke="#5D4037" stroke-width="2.5" stroke-linecap="round"/>
  <line x1="71" y1="34" x2="73" y2="34" stroke="#5D4037" stroke-width="2.5" stroke-linecap="round"/>
  <!-- Blueprint rolls -->
  <rect x="34" y="80" width="10" height="4" rx="2" fill="#90CAF9" stroke="#1565C0" stroke-width="1"/>
  <rect x="84" y="80" width="10" height="4" rx="2" fill="#90CAF9" stroke="#1565C0" stroke-width="1"/>
</svg>
