<svg xmlns="http://www.w3.org/2000/svg" viewBox="0 0 128 128" width="128" height="128">
  <circle cx="64" cy="64" r="60" fill="#FFF0E0" stroke="#8B0000" stroke-width="3"/>

  <!-- Grand base -->
  <rect x="10" y="94" width="108" height="8" rx="2" fill="#C0392B" stroke="#8B0000" stroke-width="1.5"/>
  <rect x="14" y="88" width="100" height="8" rx="2" fill="#E74C3C" stroke="#8B0000" stroke-width="1.5"/>
  <!-- Main palace body -->
  <rect x="22" y="48" width="84" height="42" rx="2" fill="#FADBD8" stroke="#8B0000" stroke-width="1.5"/>
  <!-- Central dome -->
  <ellipse cx="64" cy="48" rx="24" ry="16" fill="#F1948A" stroke="#8B0000" stroke-width="2"/>
  <ellipse cx="64" cy="48" rx="16" ry="10" fill="#FADBD8" stroke="#8B0000" stroke-width="1"/>
  <!-- Crown spire -->
  <rect x="60" y="28" width="8" height="8" rx="1" fill="#F1948A" stroke="#8B0000" stroke-width="1"/>
  <polygon points="64,16 58,28 70,28" fill="#FFD700" stroke="#B8860B" stroke-width="1.5"/>
  <circle cx="64" cy="16" r="3" fill="#FFD700" stroke="#B8860B" stroke-width="1"/>
  <!-- Side towers -->
  <rect x="14" y="34" width="16" height="56" rx="2" fill="#F5B7B1" stroke="#8B0000" stroke-width="1.5"/>
  <polygon points="22,24 12,34 32,34" fill="#E74C3C" stroke="#8B0000" stroke-width="1.5"/>
  <circle cx="22" cy="24" r="3" fill="#FFD700" stroke="#B8860B" stroke-width="1"/>
  <rect x="98" y="34" width="16" height="56" rx="2" fill="#F5B7B1" stroke="#8B0000" stroke-width="1.5"/>
  <polygon points="106,24 96,34 116,34" fill="#E74C3C" stroke="#8B0000" stroke-width="1.5"/>
  <circle cx="106" cy="24" r="3" fill="#FFD700" stroke="#B8860B" stroke-width="1"/>
  <!-- Grand entrance -->
  <rect x="50" y="62" width="28" height="28" rx="14" fill="#8B0000" stroke="#5B0000" stroke-width="1.5"/>
  <!-- Windows -->
  <rect x="28" y="56" width="10" height="14" rx="5" fill="#E74C3C" stroke="#8B0000" stroke-width="1"/>
  <rect x="90" y="56" width="10" height="14" rx="5" fill="#E74C3C" stroke="#8B0000" stroke-width="1"/>
  <!-- Tower windows -->
  <rect x="18" y="44" width="8" height="10" rx="4" fill="#E74C3C" stroke="#8B0000" stroke-width="1"/>
  <rect x="102" y="44" width="8" height="10" rx="4" fill="#E74C3C" stroke="#8B0000" stroke-width="1"/>
  <!-- Imperial star -->
  <polygon points="64,50 66,54 70,54 67,57 68,61 64,58 60,61 61,57 58,54 62,54" fill="#FFD700" stroke="#B8860B" stroke-width="0.5"/>
</svg>
