<svg xmlns="http://www.w3.org/2000/svg" viewBox="0 0 512 512" width="512" height="512">
  <g fill="#1A1A1A">
    <ellipse cx="256" cy="468" rx="230" ry="28"/>
    <!-- Colosseum outer wall -->
    <ellipse cx="256" cy="300" rx="180" ry="100" stroke="white" stroke-width="2.5" fill="none"/>
    <ellipse cx="256" cy="300" rx="140" ry="75" stroke="white" stroke-width="1.5" fill="none"/>
    <!-- Upper arches -->
    <rect x="100" y="210" width="28" height="40" rx="14" stroke="white" stroke-width="2" fill="none"/>
    <rect x="140" y="200" width="28" height="44" rx="14" stroke="white" stroke-width="2" fill="none"/>
    <rect x="180" y="194" width="28" height="46" rx="14" stroke="white" stroke-width="2" fill="none"/>
    <rect x="222" y="190" width="28" height="48" rx="14" stroke="white" stroke-width="2" fill="none"/>
    <rect x="262" y="190" width="28" height="48" rx="14" stroke="white" stroke-width="2" fill="none"/>
    <rect x="304" y="194" width="28" height="46" rx="14" stroke="white" stroke-width="2" fill="none"/>
    <rect x="344" y="200" width="28" height="44" rx="14" stroke="white" stroke-width="2" fill="none"/>
    <rect x="384" y="210" width="28" height="40" rx="14" stroke="white" stroke-width="2" fill="none"/>
    <!-- Lower arches -->
    <rect x="120" y="260" width="24" height="36" rx="12" stroke="white" stroke-width="1.5" fill="none"/>
    <rect x="160" y="254" width="24" height="40" rx="12" stroke="white" stroke-width="1.5" fill="none"/>
    <rect x="204" y="250" width="24" height="42" rx="12" stroke="white" stroke-width="1.5" fill="none"/>
    <rect x="244" y="248" width="24" height="42" rx="12" stroke="white" stroke-width="1.5" fill="none"/>
    <rect x="284" y="250" width="24" height="42" rx="12" stroke="white" stroke-width="1.5" fill="none"/>
    <rect x="328" y="254" width="24" height="40" rx="12" stroke="white" stroke-width="1.5" fill="none"/>
    <rect x="368" y="260" width="24" height="36" rx="12" stroke="white" stroke-width="1.5" fill="none"/>
    <!-- Arena floor -->
    <ellipse cx="256" cy="320" rx="100" ry="50" stroke="white" stroke-width="1.5" fill="none"/>
    <!-- Crossed swords -->
    <line x1="220" y1="290" x2="292" y2="350" stroke="white" stroke-width="3" stroke-linecap="round"/>
    <line x1="292" y1="290" x2="220" y2="350" stroke="white" stroke-width="3" stroke-linecap="round"/>
    <!-- Horizontal band -->
    <line x1="80" y1="256" x2="432" y2="256" stroke="white" stroke-width="2"/>
  </g>
</svg>
