<svg xmlns="http://www.w3.org/2000/svg" viewBox="0 0 128 128" width="128" height="128">
  <circle cx="64" cy="64" r="60" fill="#F5E6C8" stroke="#8B6914" stroke-width="3"/>

  <!-- Ground -->
  <ellipse cx="64" cy="105" rx="42" ry="8" fill="#8B6914" opacity="0.3"/>
  <!-- Left wheat -->
  <g transform="translate(38,30)">
    <line x1="12" y1="72" x2="12" y2="20" stroke="#6B8E23" stroke-width="3" stroke-linecap="round"/>
    <ellipse cx="12" cy="18" rx="5" ry="8" fill="#DAA520" stroke="#B8860B" stroke-width="1.5"/>
    <ellipse cx="6" cy="28" rx="4" ry="7" fill="#DAA520" stroke="#B8860B" stroke-width="1.5" transform="rotate(-20,6,28)"/>
    <ellipse cx="18" cy="28" rx="4" ry="7" fill="#DAA520" stroke="#B8860B" stroke-width="1.5" transform="rotate(20,18,28)"/>
    <ellipse cx="5" cy="40" rx="3.5" ry="6" fill="#DAA520" stroke="#B8860B" stroke-width="1.5" transform="rotate(-25,5,40)"/>
    <ellipse cx="19" cy="40" rx="3.5" ry="6" fill="#DAA520" stroke="#B8860B" stroke-width="1.5" transform="rotate(25,19,40)"/>
  </g>
  <!-- Center wheat -->
  <g transform="translate(52,22)">
    <line x1="12" y1="80" x2="12" y2="18" stroke="#6B8E23" stroke-width="3" stroke-linecap="round"/>
    <ellipse cx="12" cy="16" rx="5.5" ry="9" fill="#FFD700" stroke="#B8860B" stroke-width="1.5"/>
    <ellipse cx="5" cy="27" rx="4.5" ry="7.5" fill="#FFD700" stroke="#B8860B" stroke-width="1.5" transform="rotate(-18,5,27)"/>
    <ellipse cx="19" cy="27" rx="4.5" ry="7.5" fill="#FFD700" stroke="#B8860B" stroke-width="1.5" transform="rotate(18,19,27)"/>
    <ellipse cx="4" cy="40" rx="4" ry="6.5" fill="#FFD700" stroke="#B8860B" stroke-width="1.5" transform="rotate(-22,4,40)"/>
    <ellipse cx="20" cy="40" rx="4" ry="6.5" fill="#FFD700" stroke="#B8860B" stroke-width="1.5" transform="rotate(22,20,40)"/>
    <ellipse cx="5" cy="52" rx="3.5" ry="5.5" fill="#FFD700" stroke="#B8860B" stroke-width="1.5" transform="rotate(-25,5,52)"/>
    <ellipse cx="19" cy="52" rx="3.5" ry="5.5" fill="#FFD700" stroke="#B8860B" stroke-width="1.5" transform="rotate(25,19,52)"/>
  </g>
  <!-- Right wheat -->
  <g transform="translate(68,32)">
    <line x1="12" y1="70" x2="12" y2="22" stroke="#6B8E23" stroke-width="3" stroke-linecap="round"/>
    <ellipse cx="12" cy="20" rx="5" ry="8" fill="#DAA520" stroke="#B8860B" stroke-width="1.5"/>
    <ellipse cx="6" cy="30" rx="4" ry="7" fill="#DAA520" stroke="#B8860B" stroke-width="1.5" transform="rotate(-20,6,30)"/>
    <ellipse cx="18" cy="30" rx="4" ry="7" fill="#DAA520" stroke="#B8860B" stroke-width="1.5" transform="rotate(20,18,30)"/>
    <ellipse cx="5" cy="42" rx="3.5" ry="6" fill="#DAA520" stroke="#B8860B" stroke-width="1.5" transform="rotate(-25,5,42)"/>
    <ellipse cx="19" cy="42" rx="3.5" ry="6" fill="#DAA520" stroke="#B8860B" stroke-width="1.5" transform="rotate(25,19,42)"/>
  </g>

</svg>