<svg xmlns="http://www.w3.org/2000/svg" viewBox="0 0 128 128" width="128" height="128">
  <!-- Fondo escudo -->
  <path d="M64 8 L112 32 L112 72 Q112 104 64 120 Q16 104 16 72 L16 32 Z" fill="#2E5A88" stroke="#143A5C" stroke-width="3"/>
  <!-- Tres escudos en fila (formación) -->
  <path d="M30 50 L46 50 L46 78 Q38 88 30 78 Z" fill="#3D7AB8" stroke="#143A5C" stroke-width="2"/>
  <path d="M56 46 L72 46 L72 80 Q64 92 56 80 Z" fill="#3D7AB8" stroke="#143A5C" stroke-width="2"/>
  <path d="M82 50 L98 50 L98 78 Q90 88 82 78 Z" fill="#3D7AB8" stroke="#143A5C" stroke-width="2"/>
  <!-- Lanzas detrás -->
  <line x1="36" y1="14" x2="36" y2="50" stroke="#6B4E23" stroke-width="3" stroke-linecap="round"/>
  <line x1="64" y1="10" x2="64" y2="46" stroke="#6B4E23" stroke-width="3" stroke-linecap="round"/>
  <line x1="92" y1="14" x2="92" y2="50" stroke="#6B4E23" stroke-width="3" stroke-linecap="round"/>
  <polygon points="36,8 32,18 40,18" fill="#A0A0A0" stroke="#666" stroke-width="1"/>
  <polygon points="64,4 60,14 68,14" fill="#A0A0A0" stroke="#666" stroke-width="1"/>
  <polygon points="92,8 88,18 96,18" fill="#A0A0A0" stroke="#666" stroke-width="1"/>
  <text x="64" y="110" text-anchor="middle" font-size="10" font-weight="bold" fill="#F5E6C8" font-family="sans-serif">Falange</text>
</svg>
